<?xml version="1.0" encoding="iso-8859-1"?>
<!-- Generator: Adobe Illustrator 25.2.0, SVG Export Plug-In . SVG Version: 6.00 Build 0)  -->
<svg version="1.1" xmlns="http://www.w3.org/2000/svg" xmlns:xlink="http://www.w3.org/1999/xlink" x="0px" y="0px"
	 viewBox="0 0 100 100" style="enable-background:new 0 0 100 100;" xml:space="preserve">
<g id="Layer_1">
</g>
<g id="Layer_2">
</g>
<g id="&#x421;&#x43B;&#x43E;&#x439;_1">
	<g>
		<g>
			<g>
				<circle style="fill:#31C4F3;" cx="50" cy="50" r="36"/>
			</g>
		</g>
	</g>
	<g>
		<g>
			<g>
				<path style="fill:#1F212B;" d="M50,86c-19.851,0-36-16.149-36-36s16.149-36,36-36s36,16.149,36,36S69.851,86,50,86z M50,16
					c-18.748,0-34,15.252-34,34s15.252,34,34,34s34-15.252,34-34S68.748,16,50,16z"/>
			</g>
		</g>
	</g>
	<g>
		<g>
			<path style="fill:#E3E2E3;" d="M73.581,39.768c-2.314-2.434-5.557-3.143-8.956-3.143L29.75,36.5
				c-1.075,0-1.125,0.307-1.125,1.371v25.164c0,1.985,1.645,3.607,3.673,3.607h27.686c2.029,0,4.516-1.533,4.516-3.517l-0.125-4.25
				l0.125-0.5c6.743,0,12.052-3.454,12.359-9.857C77.013,45.25,75.85,42.147,73.581,39.768z M64.154,42.07
				c0-0.603,0.493,0.18,1.096,0.18l-0.313-0.188c3.925,0,5.938,2.036,5.938,5.874s-0.95,4.689-4.875,4.689l-0.75,0.25
				c-0.603,0-1.096-1.136-1.096-1.75V42.07z"/>
		</g>
	</g>
	<g>
		<g>
			<path style="fill:#EE538F;" d="M54.434,52.418c-0.342,0.383-0.752,0.813-1.192,1.252c-2.316,2.336-5.697,5.288-5.736,5.316
				c-0.205,0.215-0.547,0.364-0.928,0.364c-0.274,0-0.557-0.075-0.831-0.262c-0.186-0.131-0.293-0.234-0.342-0.28
				c-0.137-0.131-0.557-0.505-1.114-0.99c-2.374-2.093-4.974-4.419-5.814-5.522c-1.554-2.018-2.003-5.278-0.088-7.241
				c0.948-0.953,2.365-1.495,3.899-1.495h0.059c1.534,0.009,3,0.542,4.202,1.513c1.026-0.803,3.01-1.971,5.394-1.429
				c0.313,0.075,0.616,0.177,0.909,0.289c1.563,0.645,2.638,1.831,3.01,3.335C56.281,48.989,55.734,50.96,54.434,52.418z"/>
		</g>
	</g>
	<g>
		<g>
			<g>
				<g>
					<path d="M50,86c-19.851,0-36-16.149-36-36s16.149-36,36-36s36,16.149,36,36S69.851,86,50,86z M50,16c-18.748,0-34,15.252-34,34
						s15.252,34,34,34s34-15.252,34-34S68.748,16,50,16z"/>
				</g>
			</g>
		</g>
	</g>
	<g>
		<g>
			<path d="M46.517,60.049c-0.388,0-0.765-0.127-1.089-0.367c-0.206-0.152-0.333-0.279-0.403-0.359
				c-0.102-0.1-0.476-0.452-0.969-0.917c-2.34-2.204-4.84-4.591-5.676-5.753c-1.593-2.219-2.042-5.817-0.039-7.999
				c0.989-1.074,2.478-1.69,4.085-1.69c1.504,0.015,2.887,0.499,4.067,1.404c1.09-0.828,2.996-1.859,5.257-1.301
				c0.329,0.082,0.647,0.191,0.948,0.324c1.649,0.724,2.771,2.052,3.156,3.739c0.435,1.899-0.127,4.074-1.465,5.676
				c-0.33,0.396-0.726,0.837-1.15,1.294c-2.117,2.278-5.148,5.12-5.487,5.437C47.469,59.849,46.999,60.049,46.517,60.049z
				 M42.474,43.963c-1.376,0-2.597,0.498-3.396,1.367c-1.659,1.806-1.245,4.845,0.114,6.739c0.851,1.18,3.867,4.022,5.487,5.549
				c0.566,0.534,0.948,0.895,1.073,1.02c0.047,0.051,0.122,0.13,0.27,0.239c0.368,0.273,0.863,0.13,1.013-0.037
				c0.371-0.349,3.378-3.168,5.473-5.421c0.411-0.442,0.795-0.869,1.115-1.254c1.142-1.367,1.624-3.211,1.258-4.812
				c-0.313-1.371-1.231-2.453-2.585-3.047c-0.249-0.11-0.514-0.201-0.785-0.269c-2.08-0.512-3.835,0.63-4.696,1.355
				c-0.188,0.157-0.463,0.157-0.648-0.004C45.097,44.47,43.82,43.977,42.474,43.963z"/>
		</g>
	</g>
	<g>
		<g>
			<path d="M66,36H29.5c-0.83,0-1.5,0.67-1.5,1.5v25c0,2.48,2.02,4.5,4.5,4.5h28c2.48,0,4.5-2.02,4.5-4.5V59h1
				c6.34,0,11.5-5.16,11.5-11.5C77.5,41.16,72.34,36,66,36z M65.693,58H65c-0.552,0-1,0.448-1,1v3.5c0,1.933-1.567,3.5-3.5,3.5h-28
				c-1.933,0-3.5-1.567-3.5-3.5v-25c0-0.276,0.224-0.5,0.5-0.5H66c6.124,0,11.039,5.269,10.452,11.512
				C75.941,53.952,71.157,58,65.693,58z"/>
		</g>
	</g>
	<g>
		<path d="M71.452,46.738c-0.368-2.9-2.944-5.087-5.994-5.087h-0.57c-0.489,0-0.888,0.398-0.888,0.888v9.922
			c0,0.489,0.398,0.888,0.888,0.888h0.764c1.678,0,3.277-0.723,4.389-1.983C71.15,50.106,71.665,48.42,71.452,46.738z M70.487,47.5
			c0,2.667-2.169,4.836-4.836,4.836h-0.639v-9.672h0.639C68.318,42.664,70.487,44.833,70.487,47.5z"/>
	</g>
</g>
<g id="&#x421;&#x43B;&#x43E;&#x439;_3">
</g>
</svg>